<svg width="138" height="24" viewBox="0 0 138 24" fill="none" xmlns="http://www.w3.org/2000/svg">
<path d="M9.24682 23.8043C6.75212 23.8043 4.67322 22.9727 3.01009 21.3096C1.36884 19.6465 0.548223 17.5894 0.548223 15.1385C0.548223 12.6876 1.36884 10.6306 3.01009 8.96743C4.67322 7.3043 6.75212 6.47274 9.24682 6.47274C10.8005 6.47274 12.2448 6.8557 13.5797 7.62161C14.9146 8.38752 15.9431 9.4051 16.6652 10.6743L12.3652 13.169C11.7743 11.9436 10.713 11.3308 9.18117 11.3308C8.10889 11.3308 7.22261 11.6919 6.52235 12.414C5.82209 13.1143 5.47195 14.0225 5.47195 15.1385C5.47195 16.2546 5.82209 17.1736 6.52235 17.8958C7.22261 18.5961 8.10889 18.9462 9.18117 18.9462C10.7349 18.9462 11.7962 18.3335 12.3652 17.108L16.6652 19.5699C15.9431 20.8829 14.9146 21.9223 13.5797 22.6882C12.2667 23.4323 10.8224 23.8043 9.24682 23.8043ZM25.8644 6.93229V9.8537C26.1708 8.82519 26.7726 8.02645 27.6698 7.45749C28.5889 6.88852 29.6283 6.60404 30.7881 6.60404V12.1843C29.5627 11.9873 28.4357 12.1952 27.4072 12.8079C26.3787 13.3988 25.8644 14.4382 25.8644 15.9263V23.3447H20.9407V6.93229H25.8644ZM50.7939 17.108H39.141C39.6881 18.6398 41.0011 19.4057 43.08 19.4057C44.4149 19.4057 45.4653 18.99 46.2312 18.1584L50.1702 20.4233C48.5727 22.6773 46.1874 23.8043 43.0144 23.8043C40.279 23.8043 38.0688 22.9837 36.3838 21.3424C34.7425 19.7012 33.9219 17.6332 33.9219 15.1385C33.9219 12.6876 34.7316 10.6306 36.3509 8.96743C37.9922 7.3043 40.093 6.47274 42.6533 6.47274C45.0386 6.47274 47.019 7.3043 48.5946 8.96743C50.1921 10.5868 50.9908 12.6438 50.9908 15.1385C50.9908 15.8388 50.9252 16.4953 50.7939 17.108ZM39.0426 13.4316H46.0999C45.6185 11.7028 44.4587 10.8384 42.6205 10.8384C40.7166 10.8384 39.524 11.7028 39.0426 13.4316ZM65.5348 6.47274C67.3074 6.47274 68.7626 7.07453 69.9005 8.27811C71.0822 9.50357 71.6731 11.1667 71.6731 13.2675V23.3447H66.7493V13.9896C66.7493 13.0487 66.4867 12.3156 65.9615 11.7904C65.4363 11.2652 64.747 11.0026 63.8936 11.0026C62.9307 11.0026 62.1757 11.298 61.6286 11.8888C61.1035 12.4578 60.8409 13.2894 60.8409 14.3835V23.3447H55.9171V0.367313H60.8409V8.47506C61.8256 7.14018 63.3902 6.47274 65.5348 6.47274ZM89.1033 8.47506V6.93229H94.0271V23.3447H89.1033V21.802C87.9654 23.1368 86.3351 23.8043 84.2124 23.8043C82.046 23.8043 80.1968 22.9727 78.665 21.3096C77.1332 19.6465 76.3673 17.5894 76.3673 15.1385C76.3673 12.7095 77.1332 10.6634 78.665 9.00026C80.2187 7.31525 82.0679 6.47274 84.2124 6.47274C86.3351 6.47274 87.9654 7.14018 89.1033 8.47506ZM81.291 15.1385C81.291 16.364 81.6521 17.3378 82.3742 18.0599C83.0964 18.7821 84.0374 19.1431 85.1972 19.1431C86.357 19.1431 87.298 18.7821 88.0201 18.0599C88.7423 17.3378 89.1033 16.364 89.1033 15.1385C89.1033 13.913 88.7423 12.9392 88.0201 12.2171C87.298 11.4949 86.357 11.1339 85.1972 11.1339C84.0374 11.1339 83.0964 11.4949 82.3742 12.2171C81.6521 12.9392 81.291 13.913 81.291 15.1385ZM109.391 6.47274C111.163 6.47274 112.618 7.07453 113.756 8.27811C114.938 9.50357 115.529 11.1667 115.529 13.2675V23.3447H110.605V13.9896C110.605 13.0487 110.343 12.3156 109.817 11.7904C109.292 11.2652 108.603 11.0026 107.749 11.0026C106.787 11.0026 106.032 11.298 105.484 11.8888C104.959 12.4578 104.697 13.2894 104.697 14.3835V23.3447H99.773V6.93229H104.697V8.47506C105.681 7.14018 107.246 6.47274 109.391 6.47274ZM132.959 8.47506V6.93229H137.883V23.3447H132.959V21.802C131.821 23.1368 130.191 23.8043 128.068 23.8043C125.902 23.8043 124.053 22.9727 122.521 21.3096C120.989 19.6465 120.223 17.5894 120.223 15.1385C120.223 12.7095 120.989 10.6634 122.521 9.00026C124.075 7.31525 125.924 6.47274 128.068 6.47274C130.191 6.47274 131.821 7.14018 132.959 8.47506ZM125.147 15.1385C125.147 16.364 125.508 17.3378 126.23 18.0599C126.952 18.7821 127.893 19.1431 129.053 19.1431C130.213 19.1431 131.154 18.7821 131.876 18.0599C132.598 17.3378 132.959 16.364 132.959 15.1385C132.959 13.913 132.598 12.9392 131.876 12.2171C131.154 11.4949 130.213 11.1339 129.053 11.1339C127.893 11.1339 126.952 11.4949 126.23 12.2171C125.508 12.9392 125.147 13.913 125.147 15.1385Z" fill="white"/>
</svg>
